<svg xmlns="http://www.w3.org/2000/svg" viewBox="0 0 48 48">
  <path fill="#4CAF50" d="M41 10H25v28h16c.55 0 1-.45 1-1V11c0-.55-.45-1-1-1z"/>
  <path fill="#FFF" d="M32 15h7v3h-7zm0 10h7v3h-7zm0 5h7v3h-7zm0-10h7v3h-7zM27 15h3v3h-3zm0 5h3v3h-3zm0 5h3v3h-3zm0 5h3v3h-3z"/>
  <path fill="#2E7D32" d="M27 42 6 38V10l21-4z"/>
  <path fill="#FFF" d="m19.13 31-2.63-4.63c-.1-.2-.18-.42-.25-.66h-.05c-.05.2-.14.43-.25.68L13.3 31H9.84l4.24-7-3.88-7h3.37l2.2 4.22c.17.35.3.66.37.93h.04c.1-.3.24-.63.41-.97l2.42-4.18h3.1l-4.03 6.93L22.5 31h-3.37z"/>
</svg>
